<?xml version="1.0" encoding="UTF-8"?>
<svg id="Layer_2" data-name="Layer 2" xmlns="http://www.w3.org/2000/svg" viewBox="0 0 100.96 104.66">
  <defs>
    <style>
      .cls-1 {
        fill: #181818;
      }

      .cls-2 {
        fill: #dae243;
      }
    </style>
  </defs>
  <g id="Layer_1-2" data-name="Layer 1">
    <path class="cls-2" d="M96.76,58.5l1.64,1.64c3.41,3.41,3.41,8.93,0,12.34l-1.64,1.64c-3.41,3.41-8.94,3.41-12.35,0l-15.63-15.63c-3.41-3.41-3.41-8.94,0-12.35l7.81-7.81,7.81-7.81c3.41-3.41,8.94-3.41,12.35,0l1.64,1.64c3.41,3.41,3.41,8.94,0,12.35l-1.64,1.63c-3.41,3.41-3.41,8.94,0,12.35Z"/>
    <path class="cls-1" d="M72.49,72.49l1.64,1.64c3.41,3.41,3.41,8.94,0,12.35l-7.81,7.81-7.81,7.81c-3.41,3.41-8.94,3.41-12.35,0l-7.82-7.82-13.98-13.98L2.56,58.5c-3.41-3.41-3.41-8.94,0-12.35l7.81-7.81,13.98-13.99,13.99-13.99,7.82-7.81c3.41-3.41,8.94-3.41,12.34,0l7.81,7.81,7.82,7.82c3.41,3.41,3.41,8.93,0,12.34l-1.64,1.64c-3.41,3.41-8.94,3.41-12.35,0l-1.64-1.64c-3.41-3.41-8.94-3.41-12.35,0l-7.82,7.82-7.81,7.81c-3.41,3.41-3.41,8.94,0,12.35l15.63,15.63c3.41,3.41,8.94,3.41,12.35,0l1.63-1.64c3.41-3.41,8.94-3.41,12.35,0Z"/>
  </g>
</svg>