<?xml version="1.0" encoding="UTF-8"?>
<svg id="Layer_2" data-name="Layer 2" xmlns="http://www.w3.org/2000/svg" viewBox="0 0 484.21 104.66">
  <defs>
    <style>
      .cls-1 {
        fill: #181818;
      }
    </style>
  </defs>
  <g id="Layer_1-2" data-name="Layer 1">
    <path class="cls-1" d="M96.76,58.5l1.64,1.64c3.41,3.41,3.41,8.93,0,12.34l-1.64,1.64c-3.41,3.41-8.94,3.41-12.35,0l-15.63-15.63c-3.41-3.41-3.41-8.94,0-12.35l7.81-7.81,7.81-7.81c3.41-3.41,8.94-3.41,12.35,0l1.64,1.64c3.41,3.41,3.41,8.94,0,12.35l-1.64,1.63c-3.41,3.41-3.41,8.94,0,12.35Z"/>
    <path class="cls-1" d="M72.49,72.49l1.64,1.64c3.41,3.41,3.41,8.94,0,12.35l-7.81,7.81-7.81,7.81c-3.41,3.41-8.94,3.41-12.35,0l-7.82-7.82-13.98-13.98L2.56,58.5c-3.41-3.41-3.41-8.94,0-12.35l7.81-7.81,13.98-13.99,13.99-13.99,7.82-7.81c3.41-3.41,8.94-3.41,12.34,0l7.81,7.81,7.82,7.82c3.41,3.41,3.41,8.93,0,12.34l-1.64,1.64c-3.41,3.41-8.94,3.41-12.35,0l-1.64-1.64c-3.41-3.41-8.94-3.41-12.35,0l-7.82,7.82-7.81,7.81c-3.41,3.41-3.41,8.94,0,12.35l15.63,15.63c3.41,3.41,8.94,3.41,12.35,0l1.63-1.64c3.41-3.41,8.94-3.41,12.35,0Z"/>
    <g>
      <path class="cls-1" d="M152.37,63.78c-.81,2.94-2.11,5.37-3.9,7.26-1.79,1.9-3.93,3.29-6.4,4.16s-5.21,1.31-8.19,1.31c-4.27,0-7.96-.86-11.07-2.59-3.12-1.73-5.5-4.21-7.17-7.46-1.66-3.24-2.5-7.15-2.5-11.71s.83-8.47,2.5-11.71c1.66-3.24,4.05-5.73,7.17-7.46,3.11-1.73,6.78-2.59,11.01-2.59,2.94,0,5.65.42,8.13,1.25s4.57,2.1,6.27,3.81c1.71,1.71,2.92,3.9,3.65,6.59l-9.66,3.9c-.6-2.65-1.57-4.46-2.91-5.44-1.34-.98-3.04-1.47-5.09-1.47s-3.74.49-5.22,1.47c-1.47.98-2.6,2.44-3.39,4.38-.79,1.94-1.18,4.36-1.18,7.26s.36,5.27,1.09,7.23c.72,1.96,1.82,3.44,3.3,4.42,1.47.98,3.3,1.47,5.47,1.47,2.05,0,3.79-.56,5.22-1.7,1.43-1.13,2.4-2.87,2.91-5.22l9.98,2.82Z"/>
      <path class="cls-1" d="M177.46,32.99c4.27,0,7.95.86,11.04,2.59,3.09,1.73,5.47,4.21,7.14,7.46,1.66,3.24,2.5,7.15,2.5,11.71s-.83,8.47-2.5,11.71c-1.66,3.24-4.04,5.73-7.14,7.46-3.09,1.73-6.77,2.59-11.04,2.59s-7.96-.86-11.07-2.59c-3.12-1.73-5.5-4.21-7.17-7.46-1.66-3.24-2.5-7.15-2.5-11.71s.83-8.47,2.5-11.71c1.66-3.24,4.05-5.73,7.17-7.46,3.11-1.73,6.8-2.59,11.07-2.59ZM177.46,41.63c-2.05,0-3.78.49-5.18,1.47-1.41.98-2.47,2.44-3.2,4.38-.73,1.94-1.09,4.36-1.09,7.26s.36,5.27,1.09,7.23c.72,1.96,1.79,3.44,3.2,4.42,1.41.98,3.14,1.47,5.18,1.47s3.76-.49,5.15-1.47c1.39-.98,2.44-2.45,3.17-4.42.73-1.96,1.09-4.37,1.09-7.23s-.36-5.32-1.09-7.26c-.73-1.94-1.78-3.4-3.17-4.38-1.39-.98-3.1-1.47-5.15-1.47Z"/>
      <path class="cls-1" d="M223.61,33.63c6.61,0,11.68,1.84,15.2,5.5,3.52,3.67,5.28,8.88,5.28,15.62s-1.76,11.95-5.28,15.62c-3.52,3.67-8.59,5.5-15.2,5.5h-17.92v-42.24h17.92ZM222.52,67.55c3.58,0,6.2-1.08,7.84-3.23,1.64-2.15,2.46-5.34,2.46-9.57s-.82-7.41-2.46-9.57c-1.64-2.15-4.26-3.23-7.84-3.23h-5.82v25.6h5.82Z"/>
      <path class="cls-1" d="M251.64,75.87v-42.24h32.9v8.51h-21.89v8.58h17.41v8h-17.41v8.64h22.72v8.51h-33.73Z"/>
      <path class="cls-1" d="M303.03,67.36h21.18v8.51h-32.19v-42.24h11.01v33.73Z"/>
      <path class="cls-1" d="M341.56,33.63v42.24h-11.01v-42.24h11.01Z"/>
      <path class="cls-1" d="M388.98,33.63v42.24h-12.22l-13.12-22.85-3.2-6.27h-.06l.26,7.81v21.31h-9.73v-42.24h12.22l13.12,22.85,3.2,6.27h.06l-.26-7.81v-21.31h9.73Z"/>
      <path class="cls-1" d="M415.8,76.51c-3.75,0-7.09-.83-10.02-2.5-2.92-1.66-5.2-4.12-6.82-7.36-1.62-3.24-2.43-7.19-2.43-11.84s.85-8.47,2.56-11.71c1.71-3.24,4.15-5.74,7.33-7.49,3.18-1.75,6.92-2.62,11.23-2.62,4.78,0,8.64.86,11.58,2.59s5.23,4.47,6.85,8.22l-10.18,4.03c-.55-2.18-1.54-3.75-2.94-4.74-1.41-.98-3.16-1.47-5.25-1.47s-3.88.5-5.38,1.5c-1.49,1-2.62,2.47-3.39,4.42-.77,1.94-1.15,4.34-1.15,7.2s.39,5.48,1.18,7.49c.79,2.01,1.96,3.49,3.52,4.45s3.49,1.44,5.79,1.44c1.24,0,2.37-.15,3.39-.45,1.02-.3,1.92-.74,2.69-1.31.77-.58,1.37-1.3,1.79-2.18.43-.87.64-1.91.64-3.1v-.64h-9.66v-7.36h19.01v22.78h-7.49l-.83-9.92,1.79,1.54c-.9,2.9-2.51,5.13-4.83,6.69-2.33,1.56-5.32,2.34-8.99,2.34Z"/>
      <path class="cls-1" d="M463.54,32.99c4.27,0,7.95.86,11.04,2.59,3.09,1.73,5.47,4.21,7.14,7.46,1.66,3.24,2.5,7.15,2.5,11.71s-.83,8.47-2.5,11.71c-1.66,3.24-4.04,5.73-7.14,7.46-3.09,1.73-6.77,2.59-11.04,2.59s-7.96-.86-11.07-2.59c-3.12-1.73-5.5-4.21-7.17-7.46-1.66-3.24-2.5-7.15-2.5-11.71s.83-8.47,2.5-11.71c1.66-3.24,4.05-5.73,7.17-7.46,3.11-1.73,6.8-2.59,11.07-2.59ZM463.54,41.63c-2.05,0-3.78.49-5.18,1.47-1.41.98-2.47,2.44-3.2,4.38-.73,1.94-1.09,4.36-1.09,7.26s.36,5.27,1.09,7.23c.72,1.96,1.79,3.44,3.2,4.42,1.41.98,3.14,1.47,5.18,1.47s3.76-.49,5.15-1.47c1.39-.98,2.44-2.45,3.17-4.42.73-1.96,1.09-4.37,1.09-7.23s-.36-5.32-1.09-7.26c-.73-1.94-1.78-3.4-3.17-4.38-1.39-.98-3.1-1.47-5.15-1.47Z"/>
    </g>
  </g>
</svg>