<?xml version="1.0" encoding="UTF-8"?>
<svg id="Layer_2" data-name="Layer 2" xmlns="http://www.w3.org/2000/svg" viewBox="0 0 70.45 81.05">
  <defs>
    <style>
      .cls-1 {
        fill: #181818;
      }
    </style>
  </defs>
  <g id="Layer_1-2" data-name="Layer 1">
    <path class="cls-1" d="M2.62,64.98l-.87-.87c-1.79-1.79-1.8-4.7,0-6.5l.86-.86c1.8-1.8,4.71-1.8,6.5,0l8.23,8.23c1.8,1.8,1.8,4.71,0,6.5l-4.11,4.11-4.11,4.11c-1.8,1.8-4.71,1.8-6.5,0l-.86-.86c-1.8-1.8-1.8-4.71,0-6.5l.86-.86c1.8-1.8,1.8-4.71,0-6.5Z"/>
    <path class="cls-1" d="M28.09,64.98l-.87-.87c-1.79-1.79-1.8-4.7,0-6.5l.86-.86c1.8-1.8,4.71-1.8,6.5,0l8.23,8.23c1.8,1.8,1.8,4.71,0,6.5l-4.11,4.11-4.11,4.11c-1.8,1.8-4.71,1.8-6.5,0l-.86-.86c-1.8-1.8-1.8-4.71,0-6.5l.86-.86c1.8-1.8,1.8-4.71,0-6.5Z"/>
    <path class="cls-1" d="M54.38,64.98l-.87-.87c-1.79-1.79-1.8-4.7,0-6.5l.86-.86c1.8-1.8,4.71-1.8,6.5,0l8.23,8.23c1.8,1.8,1.8,4.71,0,6.5l-4.11,4.11-4.11,4.11c-1.8,1.8-4.71,1.8-6.5,0l-.86-.86c-1.8-1.8-1.8-4.71,0-6.5l.86-.86c1.8-1.8,1.8-4.71,0-6.5Z"/>
    <path class="cls-1" d="M67.83,43.78l.87.87c1.79,1.79,1.8,4.7,0,6.5l-.86.86c-1.8,1.8-4.71,1.8-6.5,0l-8.23-8.23c-1.8-1.8-1.8-4.71,0-6.5l4.11-4.11,4.11-4.11c1.8-1.8,4.71-1.8,6.5,0l.86.86c1.8,1.8,1.8,4.71,0,6.5l-.86.86c-1.8,1.8-1.8,4.71,0,6.5Z"/>
    <path class="cls-1" d="M42.36,43.78l.87.87c1.79,1.79,1.8,4.7,0,6.5l-.86.86c-1.8,1.8-4.71,1.8-6.5,0l-8.23-8.23c-1.8-1.8-1.8-4.71,0-6.5l4.11-4.11,4.11-4.11c1.8-1.8,4.71-1.8,6.5,0l.86.86c1.8,1.8,1.8,4.71,0,6.5l-.86.86c-1.8,1.8-1.8,4.71,0,6.5Z"/>
    <path class="cls-1" d="M16.08,43.78l.87.87c1.79,1.79,1.8,4.7,0,6.5l-.86.86c-1.8,1.8-4.71,1.8-6.5,0L1.35,43.78c-1.8-1.8-1.8-4.71,0-6.5l4.11-4.11,4.11-4.11c1.8-1.8,4.71-1.8,6.5,0l.86.86c1.8,1.8,1.8,4.71,0,6.5l-.86.86c-1.8,1.8-1.8,4.71,0,6.5Z"/>
    <path class="cls-1" d="M2.62,9.58l-.87-.87c-1.79-1.79-1.8-4.7,0-6.5l.86-.86c1.8-1.8,4.71-1.8,6.5,0l8.23,8.23c1.8,1.8,1.8,4.71,0,6.5l-4.11,4.11-4.11,4.11c-1.8,1.8-4.71,1.8-6.5,0l-.86-.86c-1.8-1.8-1.8-4.71,0-6.5l.86-.86c1.8-1.8,1.8-4.71,0-6.5Z"/>
    <path class="cls-1" d="M28.09,9.58l-.87-.87c-1.79-1.79-1.8-4.7,0-6.5l.86-.86c1.8-1.8,4.71-1.8,6.5,0l8.23,8.23c1.8,1.8,1.8,4.71,0,6.5l-4.11,4.11-4.11,4.11c-1.8,1.8-4.71,1.8-6.5,0l-.86-.86c-1.8-1.8-1.8-4.71,0-6.5l.86-.86c1.8-1.8,1.8-4.71,0-6.5Z"/>
    <path class="cls-1" d="M54.38,9.58l-.87-.87c-1.79-1.79-1.8-4.7,0-6.5l.86-.86c1.8-1.8,4.71-1.8,6.5,0l8.23,8.23c1.8,1.8,1.8,4.71,0,6.5l-4.11,4.11-4.11,4.11c-1.8,1.8-4.71,1.8-6.5,0l-.86-.86c-1.8-1.8-1.8-4.71,0-6.5l.86-.86c1.8-1.8,1.8-4.71,0-6.5Z"/>
  </g>
</svg>